<svg id="efkzQx8LoOX1" xmlns="http://www.w3.org/2000/svg" xmlns:xlink="http://www.w3.org/1999/xlink" viewBox="0 0 300 300" shape-rendering="geometricPrecision" text-rendering="geometricPrecision"><defs><radialGradient id="efkzQx8LoOX2-fill" cx="0" cy="0" r="0.624937" spreadMethod="pad" gradientUnits="objectBoundingBox" gradientTransform="matrix(1 0 0 1.010662 0.55625 0.5)"><stop id="efkzQx8LoOX2-fill-0" offset="100%" stop-color="#eff805"/><stop id="efkzQx8LoOX2-fill-1" offset="100%" stop-color="#fff"/></radialGradient></defs><path d="M79.004559,126.897434c0,0,.983311,6.599626,4.813606,8.395289C89.780281,138.087795,99.326106,144.983959,112.31286,150c10.820793,4.179454,11.762444,5.143173,21.571427,23.728614c6.699655,12.694084,2.583789,7.751367,15.599453,16.772166c5.336214,3.698383,11.962815,5.25797,17.552915,3.61383c3.61864-1.06431,14.634379-1.32395,18.069179-3.61383c8.0328-5.3552,35.622096-20.134234,35.622096-53.175019c0-23.232178-8.45541-34.787351-11.35777-42.333501-5.55544-14.44413-34.960579-59.26723-59.88642-29.426953-8.144647,9.750464-9.461355,15.51745-20.13423,23.231802-4.18024,0-15.378259,5.770912-17.03665,6.195151-22.19928,5.678881-30.926216,17.106093-31.719226,20.278123-.82846,3.31385-1.589075,11.627051-1.589075,11.627051" transform="matrix(1.981296 0 0 2.012146-145.646197-101.776729)" opacity="0.49" fill="url(#efkzQx8LoOX2-fill)" stroke="#f7fb84" stroke-width="0.6"/></svg>
